<?xml version="1.0" encoding="utf-8"?>
<!-- Generator: Adobe Illustrator 25.0.0, SVG Export Plug-In . SVG Version: 6.00 Build 0)  -->
<svg version="1.1" xmlns="http://www.w3.org/2000/svg" xmlns:xlink="http://www.w3.org/1999/xlink" x="0px" y="0px"
	 viewBox="0 0 1000 1000" style="enable-background:new 0 0 1000 1000;" xml:space="preserve">
<style type="text/css">
	.st0{fill:none;}
	.st1{fill-rule:evenodd;clip-rule:evenodd;}
</style>
<g id="Layer_1">
	<line class="st0" x1="668.17" y1="529.99" x2="667.15" y2="531.02"/>
	<g>
		<path d="M910.9,6.57c-4.88-0.98-9.76-1.68-14.68-2.13C896.89,4.47,902.54,4.75,910.9,6.57z"/>
		<path d="M996.1,90.69c-2.13-8.17-5.19-16.21-9.32-24.1c-0.82-1.57-1.26-2.94-1.33-4.24c2.16,4.11,4.14,8.51,5.93,13.24
			C993.17,80.3,994.75,85.33,996.1,90.69z"/>
		<path d="M997.79,148.6c-2.32,14.14-8.59,26.93-17.91,38.13c-48.91,58.76-97.71,117.6-146.77,176.24
			c-30.54,36.52-61.46,72.74-92.21,109.09c-0.69,0.82-1.44,1.6-2.5,2.76l-0.12,0.13l-53.34,63.03c-0.65,0.89-1.1,1.54-1.61,2.14
			C629.55,604.51,576.02,666.23,518,727c-23.23,24.35-83,76-83,76s-66.59-56.61-99.77-83.41C316.66,704.57,294.3,685.38,285,677
			c65.81-101.11,135.92-197.94,213.67-291.52l53.82-62.79c68.1-83.88,137.93-164.72,206.2-246.03c-0.02-0.22,33.85-38.7,33.83-38.9
			c0,0,18.86-16.29,27.75-20.42c14.95-6.94,30.74-11.13,47.21-12.72c9.62-0.93,19.17-1.03,28.65-0.17c0.02,0,0.05,0,0.07,0
			c4.92,0.45,9.81,1.15,14.68,2.13c19.68,4.31,54.39,17.23,74.56,55.78c0.06,1.3,0.5,2.66,1.33,4.24c4.13,7.89,7.19,15.93,9.32,24.1
			C1000.99,109.44,1001.01,128.87,997.79,148.6z"/>
	</g>
	<path class="st1" d="M334.47,759.56c-32.87-26.8-83.95-31.86-118.09-11.63c-10.37,6.32-18.46,11.89-26.55,20.48
		c-3.29,3.29-4.05,5.31-7.59,8.85l-51.33,74.6c-8.09,13.66-15.43,25.54-24.28,37.93c-21.49,30.6-49.82,56.9-83.95,73.59
		c-4.05,2.28-18.71,8.34-20.74,11.13c4.05,0.51,22.76,7.59,30.09,9.86c80.16,23.52,202.05,25.54,270.07-25.03
		c11.13-8.34,28.07-22.51,36.16-33.13c22.51-28.83,34.14-52.34,34.14-94.07C372.4,802.3,355.71,777.01,334.47,759.56z"/>
</g>
<g id="Layer_2">
</g>
</svg>
